<svg width="73" height="74" viewBox="0 0 73 74" fill="none" xmlns="http://www.w3.org/2000/svg">
<path d="M55.39 0.561253L72.0904 14.4994L67.4504 20.0638L50.7391 6.13288L55.39 0.561253ZM16.6967 0.561253L21.344 6.12925L4.64 20.0638L0 14.4958L16.6967 0.561253ZM36.0434 8.5C18.0271 8.5 3.41838 23.1088 3.41838 41.125C3.41838 59.1413 18.0271 73.75 36.0434 73.75C54.0596 73.75 68.6684 59.1413 68.6684 41.125C68.6684 23.1088 54.0596 8.5 36.0434 8.5ZM36.0434 66.5C22.0509 66.5 10.6684 55.1175 10.6684 41.125C10.6684 27.1325 22.0509 15.75 36.0434 15.75C50.0359 15.75 61.4184 27.1325 61.4184 41.125C61.4184 55.1175 50.0359 66.5 36.0434 66.5ZM39.6684 26.625H32.4184V37.5H21.5434V44.75H32.4184V55.625H39.6684V44.75H50.5434V37.5H39.6684V26.625Z" fill="black"/>
</svg>
